<?xml version="1.0" encoding="UTF-8"?><svg id="_レイヤー_2" xmlns="http://www.w3.org/2000/svg" viewBox="0 0 102.23 85.13"><defs><style>.cls-1{fill:#e95e95;}</style></defs><g id="_レイヤー_1-2"><path class="cls-1" d="m43.73,85.13c-.72,0-1.44-.27-1.99-.82L0,42.57,41.74.82c1.1-1.1,2.88-1.1,3.98,0,1.1,1.1,1.1,2.88,0,3.98L7.95,42.57l37.77,37.77c1.1,1.1,1.1,2.88,0,3.98-.55.55-1.27.82-1.99.82Z"/><path class="cls-1" d="m99.41,45.38H3.98c-1.55,0-2.81-1.26-2.81-2.81s1.26-2.81,2.81-2.81h95.44c1.55,0,2.81,1.26,2.81,2.81s-1.26,2.81-2.81,2.81Z"/></g></svg>