<?xml version="1.0" encoding="UTF-8"?><svg id="_レイヤー_2" xmlns="http://www.w3.org/2000/svg" viewBox="0 0 90.57 96.38"><g id="_レイヤー_1-2"><path d="m45.78,53.34c-.78.54-2.58,1.44-5.58,1.44-8.88,0-15.24-7.68-19.8-10.44C8.1,43.56,0,33.96,0,22.26S8.76,0,22.02,0s22.02,10.14,22.02,22.26c0,10.92-7.08,20.1-18.12,21.84,4.86,3.42,9,9.42,15.84,9.42,1.68,0,2.7-.36,3.72-1.02l.3.84Zm-7.08-31.08c0-10.02-4.02-21.18-16.68-21.18S5.34,12.24,5.34,22.26s4.02,21.06,16.68,21.06,16.68-11.04,16.68-21.06Z"/><path d="m90.27,69.38c-1.8-.12-4.74-.18-7.56-.18s-5.64.06-6.6.12l-2.94-4.2c-4.14,3.48-9,5.28-14.04,5.28-10.08,0-15.3-7.02-15.3-13.68,0-5.7,3.84-10.14,11.58-13.2-2.28-2.88-3.3-5.1-3.3-7.74,0-6.06,5.64-9.78,10.92-9.78,4.92,0,7.8,3.18,7.8,6.84,0,4.86-5.1,7.74-10.02,9.54l15.12,18.36c2.64-3.24,4.2-6.78,4.2-9.3,0-2.22-1.2-3.6-4.08-3.6h-2.58v-1.08c3.42.12,6.78.18,8.82.18s4.86-.06,8.28-.18v1.08h-2.34c-5.28,0-5.34,5.28-10.02,11.82-.48.72-1.02,1.32-1.5,1.98l.06.06c5.16,6.24,7.92,6.6,10.74,6.6h2.76v1.08Zm-34.26-25.14c-5.52,1.98-7.8,6.24-7.8,10.98,0,7.98,6.42,13.14,13.5,13.14,4.08,0,7.74-1.74,10.74-4.14-3.48-4.62-8.28-10.38-15.78-19.26l-.66-.72Zm11.34-11.22c0-3.42-1.68-5.88-5.46-5.88-3.24,0-6.18,1.86-6.18,5.7,0,2.88,1.56,5.28,4.56,8.88,4.2-1.68,7.08-4.26,7.08-8.7Z"/><path d="m62.29,96.38c-4.2-.12-5.88-.18-9.12-.18s-4.74.12-8.28.18v-1.08h2.76c2.04,0,2.64-.42,2.64-1.8,0-1.8-1.56-5.34-4.14-11.4h-20.82c-2.22,5.1-3.66,8.64-3.66,10.8,0,1.62.78,2.4,2.58,2.4h1.92v1.08c-1.74-.06-3.9-.18-5.64-.18-2.4,0-4.32.12-6,.18v-1.08c3.66-.18,4.62-2.22,9.78-13.8l12.36-27.6h2.16c1.62,4.38,5.28,12.18,12.06,27.48,5.64,12.66,6.78,13.92,9.72,13.92h1.68v1.08Zm-26.4-37.92l-10.08,22.56h19.86l-9.78-22.56Z"/></g></svg>