<?xml version="1.0" encoding="UTF-8"?><svg id="_レイヤー_2" xmlns="http://www.w3.org/2000/svg" viewBox="0 0 85.13 145.6"><defs><style>.cls-1{font-family:Paganini-Bold, Paganini;font-size:24px;font-weight:700;}</style></defs><g id="_レイヤー_1-2"><path d="m0,43.73c0-.72.27-1.44.82-1.99L42.57,0l41.74,41.74c1.1,1.1,1.1,2.88,0,3.98-1.1,1.1-2.88,1.1-3.98,0L42.57,7.95,4.8,45.72c-1.1,1.1-2.88,1.1-3.98,0-.55-.55-.82-1.27-.82-1.99Z"/><path d="m39.76,99.41V3.98c0-1.55,1.26-2.81,2.81-2.81s2.81,1.26,2.81,2.81v95.44c0,1.55-1.26,2.81-2.81,2.81s-2.81-1.26-2.81-2.81Z"/><text class="cls-1" transform="translate(14.15 139.77)"><tspan x="0" y="0">TOP</tspan></text></g></svg>